<mxfile host="Electron" modified="2024-04-10T21:22:58.310Z" agent="Mozilla/5.0 (Windows NT 10.0; Win64; x64) AppleWebKit/537.36 (KHTML, like Gecko) draw.io/24.1.0 Chrome/120.0.6099.109 Electron/28.1.0 Safari/537.36" etag="3wQOCaiikegKsyOIFOg6" version="24.1.0" type="device">
  <diagram name="Страница — 1" id="0xL8hshr2YgslTUYwJ_A">
    <mxGraphModel dx="2071" dy="956" grid="1" gridSize="10" guides="1" tooltips="1" connect="1" arrows="1" fold="1" page="1" pageScale="1" pageWidth="827" pageHeight="1169" math="0" shadow="0">
      <root>
        <mxCell id="0" />
        <mxCell id="1" parent="0" />
        <mxCell id="ZavuWOCTDrpFLeWUKXMv-10" value="&lt;span style=&quot;text-align: left; text-wrap: wrap;&quot;&gt;Service&lt;/span&gt;" style="shape=table;startSize=30;container=1;collapsible=1;childLayout=tableLayout;fixedRows=1;rowLines=0;fontStyle=1;align=center;resizeLast=1;html=1;" parent="1" vertex="1">
          <mxGeometry x="1310" y="520" width="260" height="230" as="geometry" />
        </mxCell>
        <mxCell id="ZavuWOCTDrpFLeWUKXMv-11" value="" style="shape=tableRow;horizontal=0;startSize=0;swimlaneHead=0;swimlaneBody=0;fillColor=none;collapsible=0;dropTarget=0;points=[[0,0.5],[1,0.5]];portConstraint=eastwest;top=0;left=0;right=0;bottom=1;" parent="ZavuWOCTDrpFLeWUKXMv-10" vertex="1">
          <mxGeometry y="30" width="260" height="30" as="geometry" />
        </mxCell>
        <mxCell id="ZavuWOCTDrpFLeWUKXMv-12" value="PK" style="shape=partialRectangle;connectable=0;fillColor=none;top=0;left=0;bottom=0;right=0;fontStyle=1;overflow=hidden;whiteSpace=wrap;html=1;" parent="ZavuWOCTDrpFLeWUKXMv-11" vertex="1">
          <mxGeometry width="30" height="30" as="geometry">
            <mxRectangle width="30" height="30" as="alternateBounds" />
          </mxGeometry>
        </mxCell>
        <mxCell id="ZavuWOCTDrpFLeWUKXMv-13" value="Service ID Int&amp;nbsp;NOT NULL" style="shape=partialRectangle;connectable=0;fillColor=none;top=0;left=0;bottom=0;right=0;align=left;spacingLeft=6;fontStyle=5;overflow=hidden;whiteSpace=wrap;html=1;" parent="ZavuWOCTDrpFLeWUKXMv-11" vertex="1">
          <mxGeometry x="30" width="230" height="30" as="geometry">
            <mxRectangle width="230" height="30" as="alternateBounds" />
          </mxGeometry>
        </mxCell>
        <mxCell id="ZavuWOCTDrpFLeWUKXMv-14" value="" style="shape=tableRow;horizontal=0;startSize=0;swimlaneHead=0;swimlaneBody=0;fillColor=none;collapsible=0;dropTarget=0;points=[[0,0.5],[1,0.5]];portConstraint=eastwest;top=0;left=0;right=0;bottom=0;" parent="ZavuWOCTDrpFLeWUKXMv-10" vertex="1">
          <mxGeometry y="60" width="260" height="170" as="geometry" />
        </mxCell>
        <mxCell id="ZavuWOCTDrpFLeWUKXMv-15" value="" style="shape=partialRectangle;connectable=0;fillColor=none;top=0;left=0;bottom=0;right=0;editable=1;overflow=hidden;whiteSpace=wrap;html=1;" parent="ZavuWOCTDrpFLeWUKXMv-14" vertex="1">
          <mxGeometry width="30" height="170" as="geometry">
            <mxRectangle width="30" height="170" as="alternateBounds" />
          </mxGeometry>
        </mxCell>
        <mxCell id="ZavuWOCTDrpFLeWUKXMv-16" value="Name: String&lt;br&gt;Description: String&lt;br&gt;Cost: Float NOT NULL&lt;br&gt;Duration: Int NOT NULL&lt;br&gt;Category: String&lt;br&gt;Materials: String&lt;br&gt;Rating: Float NOT NULL&lt;br&gt;Photos: JPG&lt;br&gt;Staff: Array&lt;div&gt;&lt;span style=&quot;font-weight: 700;&quot;&gt;Financial data&amp;nbsp;ID Int&amp;nbsp;NOT NULL&lt;/span&gt;&lt;br&gt;&lt;div&gt;&lt;span style=&quot;font-weight: 700;&quot;&gt;Inventory ID Int&amp;nbsp;NOT NULL&lt;/span&gt;&lt;br&gt;&lt;/div&gt;&lt;/div&gt;" style="shape=partialRectangle;connectable=0;fillColor=none;top=0;left=0;bottom=0;right=0;align=left;spacingLeft=6;overflow=hidden;whiteSpace=wrap;html=1;" parent="ZavuWOCTDrpFLeWUKXMv-14" vertex="1">
          <mxGeometry x="30" width="230" height="170" as="geometry">
            <mxRectangle width="230" height="170" as="alternateBounds" />
          </mxGeometry>
        </mxCell>
        <mxCell id="ZavuWOCTDrpFLeWUKXMv-24" value="&lt;span style=&quot;text-align: left; text-wrap: wrap;&quot;&gt;Client&lt;/span&gt;" style="shape=table;startSize=30;container=1;collapsible=1;childLayout=tableLayout;fixedRows=1;rowLines=0;fontStyle=1;align=center;resizeLast=1;html=1;" parent="1" vertex="1">
          <mxGeometry x="550" y="529.5" width="260" height="210" as="geometry" />
        </mxCell>
        <mxCell id="ZavuWOCTDrpFLeWUKXMv-25" value="" style="shape=tableRow;horizontal=0;startSize=0;swimlaneHead=0;swimlaneBody=0;fillColor=none;collapsible=0;dropTarget=0;points=[[0,0.5],[1,0.5]];portConstraint=eastwest;top=0;left=0;right=0;bottom=1;" parent="ZavuWOCTDrpFLeWUKXMv-24" vertex="1">
          <mxGeometry y="30" width="260" height="30" as="geometry" />
        </mxCell>
        <mxCell id="ZavuWOCTDrpFLeWUKXMv-26" value="PK" style="shape=partialRectangle;connectable=0;fillColor=none;top=0;left=0;bottom=0;right=0;fontStyle=1;overflow=hidden;whiteSpace=wrap;html=1;" parent="ZavuWOCTDrpFLeWUKXMv-25" vertex="1">
          <mxGeometry width="30" height="30" as="geometry">
            <mxRectangle width="30" height="30" as="alternateBounds" />
          </mxGeometry>
        </mxCell>
        <mxCell id="ZavuWOCTDrpFLeWUKXMv-27" value="Client ID Int&amp;nbsp;NOT NULL" style="shape=partialRectangle;connectable=0;fillColor=none;top=0;left=0;bottom=0;right=0;align=left;spacingLeft=6;fontStyle=5;overflow=hidden;whiteSpace=wrap;html=1;" parent="ZavuWOCTDrpFLeWUKXMv-25" vertex="1">
          <mxGeometry x="30" width="230" height="30" as="geometry">
            <mxRectangle width="230" height="30" as="alternateBounds" />
          </mxGeometry>
        </mxCell>
        <mxCell id="ZavuWOCTDrpFLeWUKXMv-28" value="" style="shape=tableRow;horizontal=0;startSize=0;swimlaneHead=0;swimlaneBody=0;fillColor=none;collapsible=0;dropTarget=0;points=[[0,0.5],[1,0.5]];portConstraint=eastwest;top=0;left=0;right=0;bottom=0;" parent="ZavuWOCTDrpFLeWUKXMv-24" vertex="1">
          <mxGeometry y="60" width="260" height="150" as="geometry" />
        </mxCell>
        <mxCell id="ZavuWOCTDrpFLeWUKXMv-29" value="" style="shape=partialRectangle;connectable=0;fillColor=none;top=0;left=0;bottom=0;right=0;editable=1;overflow=hidden;whiteSpace=wrap;html=1;" parent="ZavuWOCTDrpFLeWUKXMv-28" vertex="1">
          <mxGeometry width="30" height="150" as="geometry">
            <mxRectangle width="30" height="150" as="alternateBounds" />
          </mxGeometry>
        </mxCell>
        <mxCell id="ZavuWOCTDrpFLeWUKXMv-30" value="First name: String&lt;br style=&quot;padding: 0px; margin: 0px;&quot;&gt;Last name: String&lt;br style=&quot;padding: 0px; margin: 0px;&quot;&gt;Phone number: String&lt;br style=&quot;padding: 0px; margin: 0px;&quot;&gt;Email: String&amp;nbsp;&lt;br style=&quot;padding: 0px; margin: 0px;&quot;&gt;Date of birth: Date&lt;br style=&quot;padding: 0px; margin: 0px;&quot;&gt;Preferences: String&lt;br style=&quot;padding: 0px; margin: 0px;&quot;&gt;&lt;span style=&quot;font-weight: 700;&quot;&gt;Client&#39;s history ID Int&amp;nbsp;NOT NULL&lt;/span&gt;&lt;br style=&quot;padding: 0px; margin: 0px;&quot;&gt;Service notes: Array&lt;br style=&quot;padding: 0px; margin: 0px;&quot;&gt;&lt;span style=&quot;font-weight: 700;&quot;&gt;Review ID Int&amp;nbsp;NOT NULL&lt;/span&gt;" style="shape=partialRectangle;connectable=0;fillColor=none;top=0;left=0;bottom=0;right=0;align=left;spacingLeft=6;overflow=hidden;whiteSpace=wrap;html=1;" parent="ZavuWOCTDrpFLeWUKXMv-28" vertex="1">
          <mxGeometry x="30" width="230" height="150" as="geometry">
            <mxRectangle width="230" height="150" as="alternateBounds" />
          </mxGeometry>
        </mxCell>
        <mxCell id="ZavuWOCTDrpFLeWUKXMv-31" value="&lt;b style=&quot;color: rgb(0, 0, 0); font-family: Helvetica; font-size: 12px; font-style: normal; font-variant-ligatures: normal; font-variant-caps: normal; letter-spacing: normal; orphans: 2; text-indent: 0px; text-transform: none; widows: 2; word-spacing: 0px; -webkit-text-stroke-width: 0px; white-space: normal; background-color: rgb(251, 251, 251); text-decoration-thickness: initial; text-decoration-style: initial; text-decoration-color: initial;&quot;&gt;FK&lt;/b&gt;" style="text;whiteSpace=wrap;html=1;align=center;" parent="1" vertex="1">
          <mxGeometry x="550" y="679" width="30" height="20" as="geometry" />
        </mxCell>
        <mxCell id="ZavuWOCTDrpFLeWUKXMv-32" value="&lt;b style=&quot;color: rgb(0, 0, 0); font-family: Helvetica; font-size: 12px; font-style: normal; font-variant-ligatures: normal; font-variant-caps: normal; letter-spacing: normal; orphans: 2; text-align: center; text-indent: 0px; text-transform: none; widows: 2; word-spacing: 0px; -webkit-text-stroke-width: 0px; white-space: normal; text-decoration-thickness: initial; text-decoration-style: initial; text-decoration-color: initial; background-color: rgb(251, 251, 251);&quot;&gt;FK&lt;/b&gt;" style="text;whiteSpace=wrap;html=1;" parent="1" vertex="1">
          <mxGeometry x="40" y="440" width="20" height="20" as="geometry" />
        </mxCell>
        <mxCell id="ZavuWOCTDrpFLeWUKXMv-36" value="Employee" style="shape=table;startSize=30;container=1;collapsible=1;childLayout=tableLayout;fixedRows=1;rowLines=0;fontStyle=1;align=center;resizeLast=1;html=1;" parent="1" vertex="1">
          <mxGeometry x="1270" y="800" width="260" height="230" as="geometry" />
        </mxCell>
        <mxCell id="ZavuWOCTDrpFLeWUKXMv-37" value="" style="shape=tableRow;horizontal=0;startSize=0;swimlaneHead=0;swimlaneBody=0;fillColor=none;collapsible=0;dropTarget=0;points=[[0,0.5],[1,0.5]];portConstraint=eastwest;top=0;left=0;right=0;bottom=1;" parent="ZavuWOCTDrpFLeWUKXMv-36" vertex="1">
          <mxGeometry y="30" width="260" height="30" as="geometry" />
        </mxCell>
        <mxCell id="ZavuWOCTDrpFLeWUKXMv-38" value="PK" style="shape=partialRectangle;connectable=0;fillColor=none;top=0;left=0;bottom=0;right=0;fontStyle=1;overflow=hidden;whiteSpace=wrap;html=1;" parent="ZavuWOCTDrpFLeWUKXMv-37" vertex="1">
          <mxGeometry width="30" height="30" as="geometry">
            <mxRectangle width="30" height="30" as="alternateBounds" />
          </mxGeometry>
        </mxCell>
        <mxCell id="ZavuWOCTDrpFLeWUKXMv-39" value="&lt;span style=&quot;text-align: center; text-wrap: nowrap;&quot;&gt;Employee&lt;/span&gt;&amp;nbsp;ID Int&amp;nbsp;NOT NULL" style="shape=partialRectangle;connectable=0;fillColor=none;top=0;left=0;bottom=0;right=0;align=left;spacingLeft=6;fontStyle=5;overflow=hidden;whiteSpace=wrap;html=1;" parent="ZavuWOCTDrpFLeWUKXMv-37" vertex="1">
          <mxGeometry x="30" width="230" height="30" as="geometry">
            <mxRectangle width="230" height="30" as="alternateBounds" />
          </mxGeometry>
        </mxCell>
        <mxCell id="ZavuWOCTDrpFLeWUKXMv-40" value="" style="shape=tableRow;horizontal=0;startSize=0;swimlaneHead=0;swimlaneBody=0;fillColor=none;collapsible=0;dropTarget=0;points=[[0,0.5],[1,0.5]];portConstraint=eastwest;top=0;left=0;right=0;bottom=0;" parent="ZavuWOCTDrpFLeWUKXMv-36" vertex="1">
          <mxGeometry y="60" width="260" height="170" as="geometry" />
        </mxCell>
        <mxCell id="ZavuWOCTDrpFLeWUKXMv-41" value="" style="shape=partialRectangle;connectable=0;fillColor=none;top=0;left=0;bottom=0;right=0;editable=1;overflow=hidden;whiteSpace=wrap;html=1;" parent="ZavuWOCTDrpFLeWUKXMv-40" vertex="1">
          <mxGeometry width="30" height="170" as="geometry">
            <mxRectangle width="30" height="170" as="alternateBounds" />
          </mxGeometry>
        </mxCell>
        <mxCell id="ZavuWOCTDrpFLeWUKXMv-42" value="First name: String&lt;br style=&quot;padding: 0px; margin: 0px;&quot;&gt;Last name: String&lt;br style=&quot;padding: 0px; margin: 0px;&quot;&gt;Phone number: String&lt;br style=&quot;padding: 0px; margin: 0px;&quot;&gt;Specialization: String&lt;br&gt;&lt;span style=&quot;font-weight: 700;&quot;&gt;Calendar&amp;nbsp;ID Int&amp;nbsp;NOT NULL&lt;/span&gt;&lt;br&gt;Internships: Int NOT NULL&lt;br&gt;&lt;span style=&quot;font-weight: 700;&quot;&gt;Review ID Int&amp;nbsp;NOT NULL&lt;/span&gt;&lt;br&gt;&lt;span style=&quot;font-weight: 700;&quot;&gt;Service ID Int NOT NULL&lt;/span&gt;&lt;br&gt;Photograph: JPG&lt;br&gt;Contact information: String&lt;br&gt;Availability calendar: String" style="shape=partialRectangle;connectable=0;fillColor=none;top=0;left=0;bottom=0;right=0;align=left;spacingLeft=6;overflow=hidden;whiteSpace=wrap;html=1;" parent="ZavuWOCTDrpFLeWUKXMv-40" vertex="1">
          <mxGeometry x="30" width="230" height="170" as="geometry">
            <mxRectangle width="230" height="170" as="alternateBounds" />
          </mxGeometry>
        </mxCell>
        <mxCell id="ZavuWOCTDrpFLeWUKXMv-44" value="&lt;span style=&quot;text-align: left; text-wrap: wrap;&quot;&gt;Recording&lt;/span&gt;&lt;span style=&quot;font-weight: 400; text-align: left; text-wrap: wrap;&quot;&gt;&amp;nbsp;&lt;/span&gt;" style="shape=table;startSize=30;container=1;collapsible=1;childLayout=tableLayout;fixedRows=1;rowLines=0;fontStyle=1;align=center;resizeLast=1;html=1;" parent="1" vertex="1">
          <mxGeometry x="1310" y="240" width="270" height="230" as="geometry" />
        </mxCell>
        <mxCell id="ZavuWOCTDrpFLeWUKXMv-45" value="" style="shape=tableRow;horizontal=0;startSize=0;swimlaneHead=0;swimlaneBody=0;fillColor=none;collapsible=0;dropTarget=0;points=[[0,0.5],[1,0.5]];portConstraint=eastwest;top=0;left=0;right=0;bottom=1;" parent="ZavuWOCTDrpFLeWUKXMv-44" vertex="1">
          <mxGeometry y="30" width="270" height="30" as="geometry" />
        </mxCell>
        <mxCell id="ZavuWOCTDrpFLeWUKXMv-46" value="PK" style="shape=partialRectangle;connectable=0;fillColor=none;top=0;left=0;bottom=0;right=0;fontStyle=1;overflow=hidden;whiteSpace=wrap;html=1;" parent="ZavuWOCTDrpFLeWUKXMv-45" vertex="1">
          <mxGeometry width="30" height="30" as="geometry">
            <mxRectangle width="30" height="30" as="alternateBounds" />
          </mxGeometry>
        </mxCell>
        <mxCell id="ZavuWOCTDrpFLeWUKXMv-47" value="Recording ID Int&amp;nbsp;NOT NULL" style="shape=partialRectangle;connectable=0;fillColor=none;top=0;left=0;bottom=0;right=0;align=left;spacingLeft=6;fontStyle=5;overflow=hidden;whiteSpace=wrap;html=1;" parent="ZavuWOCTDrpFLeWUKXMv-45" vertex="1">
          <mxGeometry x="30" width="240" height="30" as="geometry">
            <mxRectangle width="240" height="30" as="alternateBounds" />
          </mxGeometry>
        </mxCell>
        <mxCell id="ZavuWOCTDrpFLeWUKXMv-48" value="" style="shape=tableRow;horizontal=0;startSize=0;swimlaneHead=0;swimlaneBody=0;fillColor=none;collapsible=0;dropTarget=0;points=[[0,0.5],[1,0.5]];portConstraint=eastwest;top=0;left=0;right=0;bottom=0;" parent="ZavuWOCTDrpFLeWUKXMv-44" vertex="1">
          <mxGeometry y="60" width="270" height="170" as="geometry" />
        </mxCell>
        <mxCell id="ZavuWOCTDrpFLeWUKXMv-49" value="" style="shape=partialRectangle;connectable=0;fillColor=none;top=0;left=0;bottom=0;right=0;editable=1;overflow=hidden;whiteSpace=wrap;html=1;" parent="ZavuWOCTDrpFLeWUKXMv-48" vertex="1">
          <mxGeometry width="30" height="170" as="geometry">
            <mxRectangle width="30" height="170" as="alternateBounds" />
          </mxGeometry>
        </mxCell>
        <mxCell id="ZavuWOCTDrpFLeWUKXMv-50" value="DataRecords: Datetime&lt;br&gt;&lt;span style=&quot;font-weight: 700;&quot;&gt;Client ID Int NOT NULL&lt;/span&gt;&lt;br&gt;&lt;span style=&quot;font-weight: 700;&quot;&gt;Service ID Int NOT NULL&lt;/span&gt;&lt;br&gt;&lt;span style=&quot;font-weight: 700; text-wrap: nowrap; text-align: center;&quot;&gt;Employee&lt;/span&gt;&lt;span style=&quot;font-weight: 700;&quot;&gt;&amp;nbsp;ID Int NOT NULL&lt;/span&gt;&lt;br&gt;Status: String&lt;br&gt;Notes: String&lt;br&gt;Cost: Float&amp;nbsp;&lt;br&gt;Pre-payment: Bool&amp;nbsp;&lt;br&gt;Repeat record: Bool&amp;nbsp;&lt;br&gt;&lt;span style=&quot;font-weight: 700;&quot;&gt;Reminder Notifications&amp;nbsp;ID Int&amp;nbsp;NOT NULL&lt;/span&gt;" style="shape=partialRectangle;connectable=0;fillColor=none;top=0;left=0;bottom=0;right=0;align=left;spacingLeft=6;overflow=hidden;whiteSpace=wrap;html=1;" parent="ZavuWOCTDrpFLeWUKXMv-48" vertex="1">
          <mxGeometry x="30" width="240" height="170" as="geometry">
            <mxRectangle width="240" height="170" as="alternateBounds" />
          </mxGeometry>
        </mxCell>
        <mxCell id="nVaocaOWp-77uA6Ea02G-2" value="&lt;span style=&quot;text-align: left; text-wrap: wrap;&quot;&gt;Calendar&lt;/span&gt;" style="shape=table;startSize=30;container=1;collapsible=1;childLayout=tableLayout;fixedRows=1;rowLines=0;fontStyle=1;align=center;resizeLast=1;html=1;" vertex="1" parent="1">
          <mxGeometry x="930" y="831" width="260" height="149" as="geometry" />
        </mxCell>
        <mxCell id="nVaocaOWp-77uA6Ea02G-3" value="" style="shape=tableRow;horizontal=0;startSize=0;swimlaneHead=0;swimlaneBody=0;fillColor=none;collapsible=0;dropTarget=0;points=[[0,0.5],[1,0.5]];portConstraint=eastwest;top=0;left=0;right=0;bottom=1;" vertex="1" parent="nVaocaOWp-77uA6Ea02G-2">
          <mxGeometry y="30" width="260" height="30" as="geometry" />
        </mxCell>
        <mxCell id="nVaocaOWp-77uA6Ea02G-4" value="PK" style="shape=partialRectangle;connectable=0;fillColor=none;top=0;left=0;bottom=0;right=0;fontStyle=1;overflow=hidden;whiteSpace=wrap;html=1;" vertex="1" parent="nVaocaOWp-77uA6Ea02G-3">
          <mxGeometry width="30" height="30" as="geometry">
            <mxRectangle width="30" height="30" as="alternateBounds" />
          </mxGeometry>
        </mxCell>
        <mxCell id="nVaocaOWp-77uA6Ea02G-5" value="Calendar&amp;nbsp;ID Int&amp;nbsp;NOT NULL" style="shape=partialRectangle;connectable=0;fillColor=none;top=0;left=0;bottom=0;right=0;align=left;spacingLeft=6;fontStyle=5;overflow=hidden;whiteSpace=wrap;html=1;" vertex="1" parent="nVaocaOWp-77uA6Ea02G-3">
          <mxGeometry x="30" width="230" height="30" as="geometry">
            <mxRectangle width="230" height="30" as="alternateBounds" />
          </mxGeometry>
        </mxCell>
        <mxCell id="nVaocaOWp-77uA6Ea02G-6" value="" style="shape=tableRow;horizontal=0;startSize=0;swimlaneHead=0;swimlaneBody=0;fillColor=none;collapsible=0;dropTarget=0;points=[[0,0.5],[1,0.5]];portConstraint=eastwest;top=0;left=0;right=0;bottom=0;" vertex="1" parent="nVaocaOWp-77uA6Ea02G-2">
          <mxGeometry y="60" width="260" height="89" as="geometry" />
        </mxCell>
        <mxCell id="nVaocaOWp-77uA6Ea02G-7" value="" style="shape=partialRectangle;connectable=0;fillColor=none;top=0;left=0;bottom=0;right=0;editable=1;overflow=hidden;whiteSpace=wrap;html=1;" vertex="1" parent="nVaocaOWp-77uA6Ea02G-6">
          <mxGeometry width="30" height="89" as="geometry">
            <mxRectangle width="30" height="89" as="alternateBounds" />
          </mxGeometry>
        </mxCell>
        <mxCell id="nVaocaOWp-77uA6Ea02G-8" value="Available Time Slots: Array&lt;br style=&quot;padding: 0px; margin: 0px;&quot;&gt;Busy Time Slots: Array&lt;br style=&quot;padding: 0px; margin: 0px;&quot;&gt;Employee Information: Array&lt;br style=&quot;padding: 0px; margin: 0px;&quot;&gt;Filtering by categories: Void" style="shape=partialRectangle;connectable=0;fillColor=none;top=0;left=0;bottom=0;right=0;align=left;spacingLeft=6;overflow=hidden;whiteSpace=wrap;html=1;" vertex="1" parent="nVaocaOWp-77uA6Ea02G-6">
          <mxGeometry x="30" width="230" height="89" as="geometry">
            <mxRectangle width="230" height="89" as="alternateBounds" />
          </mxGeometry>
        </mxCell>
        <mxCell id="nVaocaOWp-77uA6Ea02G-10" value="&lt;span style=&quot;text-align: left; text-wrap: wrap;&quot;&gt;Review&amp;nbsp;&lt;/span&gt;" style="shape=table;startSize=30;container=1;collapsible=1;childLayout=tableLayout;fixedRows=1;rowLines=0;fontStyle=1;align=center;resizeLast=1;html=1;" vertex="1" parent="1">
          <mxGeometry x="940" y="570" width="260" height="149" as="geometry" />
        </mxCell>
        <mxCell id="nVaocaOWp-77uA6Ea02G-11" value="" style="shape=tableRow;horizontal=0;startSize=0;swimlaneHead=0;swimlaneBody=0;fillColor=none;collapsible=0;dropTarget=0;points=[[0,0.5],[1,0.5]];portConstraint=eastwest;top=0;left=0;right=0;bottom=1;" vertex="1" parent="nVaocaOWp-77uA6Ea02G-10">
          <mxGeometry y="30" width="260" height="30" as="geometry" />
        </mxCell>
        <mxCell id="nVaocaOWp-77uA6Ea02G-12" value="PK" style="shape=partialRectangle;connectable=0;fillColor=none;top=0;left=0;bottom=0;right=0;fontStyle=1;overflow=hidden;whiteSpace=wrap;html=1;" vertex="1" parent="nVaocaOWp-77uA6Ea02G-11">
          <mxGeometry width="30" height="30" as="geometry">
            <mxRectangle width="30" height="30" as="alternateBounds" />
          </mxGeometry>
        </mxCell>
        <mxCell id="nVaocaOWp-77uA6Ea02G-13" value="Review ID Int&amp;nbsp;NOT NULL" style="shape=partialRectangle;connectable=0;fillColor=none;top=0;left=0;bottom=0;right=0;align=left;spacingLeft=6;fontStyle=5;overflow=hidden;whiteSpace=wrap;html=1;" vertex="1" parent="nVaocaOWp-77uA6Ea02G-11">
          <mxGeometry x="30" width="230" height="30" as="geometry">
            <mxRectangle width="230" height="30" as="alternateBounds" />
          </mxGeometry>
        </mxCell>
        <mxCell id="nVaocaOWp-77uA6Ea02G-14" value="" style="shape=tableRow;horizontal=0;startSize=0;swimlaneHead=0;swimlaneBody=0;fillColor=none;collapsible=0;dropTarget=0;points=[[0,0.5],[1,0.5]];portConstraint=eastwest;top=0;left=0;right=0;bottom=0;" vertex="1" parent="nVaocaOWp-77uA6Ea02G-10">
          <mxGeometry y="60" width="260" height="89" as="geometry" />
        </mxCell>
        <mxCell id="nVaocaOWp-77uA6Ea02G-15" value="" style="shape=partialRectangle;connectable=0;fillColor=none;top=0;left=0;bottom=0;right=0;editable=1;overflow=hidden;whiteSpace=wrap;html=1;" vertex="1" parent="nVaocaOWp-77uA6Ea02G-14">
          <mxGeometry width="30" height="89" as="geometry">
            <mxRectangle width="30" height="89" as="alternateBounds" />
          </mxGeometry>
        </mxCell>
        <mxCell id="nVaocaOWp-77uA6Ea02G-16" value="Rating: Int NOT NULL&lt;br&gt;Text of the call: String&lt;br&gt;Date of the callback: Datetime&lt;br&gt;Client name: String" style="shape=partialRectangle;connectable=0;fillColor=none;top=0;left=0;bottom=0;right=0;align=left;spacingLeft=6;overflow=hidden;whiteSpace=wrap;html=1;" vertex="1" parent="nVaocaOWp-77uA6Ea02G-14">
          <mxGeometry x="30" width="230" height="89" as="geometry">
            <mxRectangle width="230" height="89" as="alternateBounds" />
          </mxGeometry>
        </mxCell>
        <mxCell id="nVaocaOWp-77uA6Ea02G-18" value="&lt;span style=&quot;text-align: left; text-wrap: wrap;&quot;&gt;Client&#39;s history&lt;/span&gt;" style="shape=table;startSize=30;container=1;collapsible=1;childLayout=tableLayout;fixedRows=1;rowLines=0;fontStyle=1;align=center;resizeLast=1;html=1;" vertex="1" parent="1">
          <mxGeometry x="210" y="550" width="260" height="149" as="geometry" />
        </mxCell>
        <mxCell id="nVaocaOWp-77uA6Ea02G-19" value="" style="shape=tableRow;horizontal=0;startSize=0;swimlaneHead=0;swimlaneBody=0;fillColor=none;collapsible=0;dropTarget=0;points=[[0,0.5],[1,0.5]];portConstraint=eastwest;top=0;left=0;right=0;bottom=1;" vertex="1" parent="nVaocaOWp-77uA6Ea02G-18">
          <mxGeometry y="30" width="260" height="30" as="geometry" />
        </mxCell>
        <mxCell id="nVaocaOWp-77uA6Ea02G-20" value="PK" style="shape=partialRectangle;connectable=0;fillColor=none;top=0;left=0;bottom=0;right=0;fontStyle=1;overflow=hidden;whiteSpace=wrap;html=1;" vertex="1" parent="nVaocaOWp-77uA6Ea02G-19">
          <mxGeometry width="30" height="30" as="geometry">
            <mxRectangle width="30" height="30" as="alternateBounds" />
          </mxGeometry>
        </mxCell>
        <mxCell id="nVaocaOWp-77uA6Ea02G-21" value="Client&#39;s history ID Int&amp;nbsp;NOT NULL" style="shape=partialRectangle;connectable=0;fillColor=none;top=0;left=0;bottom=0;right=0;align=left;spacingLeft=6;fontStyle=5;overflow=hidden;whiteSpace=wrap;html=1;" vertex="1" parent="nVaocaOWp-77uA6Ea02G-19">
          <mxGeometry x="30" width="230" height="30" as="geometry">
            <mxRectangle width="230" height="30" as="alternateBounds" />
          </mxGeometry>
        </mxCell>
        <mxCell id="nVaocaOWp-77uA6Ea02G-22" value="" style="shape=tableRow;horizontal=0;startSize=0;swimlaneHead=0;swimlaneBody=0;fillColor=none;collapsible=0;dropTarget=0;points=[[0,0.5],[1,0.5]];portConstraint=eastwest;top=0;left=0;right=0;bottom=0;" vertex="1" parent="nVaocaOWp-77uA6Ea02G-18">
          <mxGeometry y="60" width="260" height="89" as="geometry" />
        </mxCell>
        <mxCell id="nVaocaOWp-77uA6Ea02G-23" value="" style="shape=partialRectangle;connectable=0;fillColor=none;top=0;left=0;bottom=0;right=0;editable=1;overflow=hidden;whiteSpace=wrap;html=1;" vertex="1" parent="nVaocaOWp-77uA6Ea02G-22">
          <mxGeometry width="30" height="89" as="geometry">
            <mxRectangle width="30" height="89" as="alternateBounds" />
          </mxGeometry>
        </mxCell>
        <mxCell id="nVaocaOWp-77uA6Ea02G-24" value="Date of the visit: Date&amp;nbsp;&lt;br style=&quot;padding: 0px; margin: 0px;&quot;&gt;Preferences: String&amp;nbsp;&lt;br style=&quot;padding: 0px; margin: 0px;&quot;&gt;Entries: Array&amp;nbsp;&lt;br style=&quot;padding: 0px; margin: 0px;&quot;&gt;Reviews: Array&amp;nbsp;&lt;br style=&quot;padding: 0px; margin: 0px;&quot;&gt;Recommendations: String" style="shape=partialRectangle;connectable=0;fillColor=none;top=0;left=0;bottom=0;right=0;align=left;spacingLeft=6;overflow=hidden;whiteSpace=wrap;html=1;" vertex="1" parent="nVaocaOWp-77uA6Ea02G-22">
          <mxGeometry x="30" width="230" height="89" as="geometry">
            <mxRectangle width="230" height="89" as="alternateBounds" />
          </mxGeometry>
        </mxCell>
        <mxCell id="nVaocaOWp-77uA6Ea02G-26" value="&lt;span style=&quot;text-align: left; text-wrap: wrap;&quot;&gt;Inventory&amp;nbsp;&lt;/span&gt;" style="shape=table;startSize=30;container=1;collapsible=1;childLayout=tableLayout;fixedRows=1;rowLines=0;fontStyle=1;align=center;resizeLast=1;html=1;" vertex="1" parent="1">
          <mxGeometry x="1630" y="529.5" width="285" height="230" as="geometry" />
        </mxCell>
        <mxCell id="nVaocaOWp-77uA6Ea02G-27" value="" style="shape=tableRow;horizontal=0;startSize=0;swimlaneHead=0;swimlaneBody=0;fillColor=none;collapsible=0;dropTarget=0;points=[[0,0.5],[1,0.5]];portConstraint=eastwest;top=0;left=0;right=0;bottom=1;" vertex="1" parent="nVaocaOWp-77uA6Ea02G-26">
          <mxGeometry y="30" width="285" height="30" as="geometry" />
        </mxCell>
        <mxCell id="nVaocaOWp-77uA6Ea02G-28" value="PK" style="shape=partialRectangle;connectable=0;fillColor=none;top=0;left=0;bottom=0;right=0;fontStyle=1;overflow=hidden;whiteSpace=wrap;html=1;" vertex="1" parent="nVaocaOWp-77uA6Ea02G-27">
          <mxGeometry width="30" height="30" as="geometry">
            <mxRectangle width="30" height="30" as="alternateBounds" />
          </mxGeometry>
        </mxCell>
        <mxCell id="nVaocaOWp-77uA6Ea02G-29" value="Inventory ID Int&amp;nbsp;NOT NULL" style="shape=partialRectangle;connectable=0;fillColor=none;top=0;left=0;bottom=0;right=0;align=left;spacingLeft=6;fontStyle=5;overflow=hidden;whiteSpace=wrap;html=1;" vertex="1" parent="nVaocaOWp-77uA6Ea02G-27">
          <mxGeometry x="30" width="255" height="30" as="geometry">
            <mxRectangle width="255" height="30" as="alternateBounds" />
          </mxGeometry>
        </mxCell>
        <mxCell id="nVaocaOWp-77uA6Ea02G-30" value="" style="shape=tableRow;horizontal=0;startSize=0;swimlaneHead=0;swimlaneBody=0;fillColor=none;collapsible=0;dropTarget=0;points=[[0,0.5],[1,0.5]];portConstraint=eastwest;top=0;left=0;right=0;bottom=0;" vertex="1" parent="nVaocaOWp-77uA6Ea02G-26">
          <mxGeometry y="60" width="285" height="170" as="geometry" />
        </mxCell>
        <mxCell id="nVaocaOWp-77uA6Ea02G-31" value="" style="shape=partialRectangle;connectable=0;fillColor=none;top=0;left=0;bottom=0;right=0;editable=1;overflow=hidden;whiteSpace=wrap;html=1;" vertex="1" parent="nVaocaOWp-77uA6Ea02G-30">
          <mxGeometry width="30" height="170" as="geometry">
            <mxRectangle width="30" height="170" as="alternateBounds" />
          </mxGeometry>
        </mxCell>
        <mxCell id="nVaocaOWp-77uA6Ea02G-32" value="Name: String&amp;nbsp;&lt;div&gt;Quantity:&amp;nbsp;&lt;span style=&quot;background-color: initial;&quot;&gt;Int NOT NULL&lt;/span&gt;&lt;span style=&quot;background-color: initial;&quot;&gt;&amp;nbsp;&lt;/span&gt;&lt;/div&gt;&lt;div&gt;Units of measurement: String&amp;nbsp;&lt;br style=&quot;padding: 0px; margin: 0px;&quot;&gt;Unit Price: Float&amp;nbsp;&lt;br style=&quot;padding: 0px; margin: 0px;&quot;&gt;Supplier: String&amp;nbsp;&lt;br style=&quot;padding: 0px; margin: 0px;&quot;&gt;Date of the Last Deposit: Date&amp;nbsp;&lt;br style=&quot;padding: 0px; margin: 0px;&quot;&gt;Minimum Inventory Threshold: Int NOT NULL&lt;br style=&quot;padding: 0px; margin: 0px;&quot;&gt;Category: String&amp;nbsp;&lt;br style=&quot;padding: 0px; margin: 0px;&quot;&gt;Instructions: String&amp;nbsp;&lt;br style=&quot;padding: 0px; margin: 0px;&quot;&gt;Photograph: JPG&amp;nbsp;&lt;/div&gt;" style="shape=partialRectangle;connectable=0;fillColor=none;top=0;left=0;bottom=0;right=0;align=left;spacingLeft=6;overflow=hidden;whiteSpace=wrap;html=1;" vertex="1" parent="nVaocaOWp-77uA6Ea02G-30">
          <mxGeometry x="30" width="255" height="170" as="geometry">
            <mxRectangle width="255" height="170" as="alternateBounds" />
          </mxGeometry>
        </mxCell>
        <mxCell id="nVaocaOWp-77uA6Ea02G-34" value="&lt;span style=&quot;text-align: left; text-wrap: wrap;&quot;&gt;Financial data&lt;/span&gt;" style="shape=table;startSize=30;container=1;collapsible=1;childLayout=tableLayout;fixedRows=1;rowLines=0;fontStyle=1;align=center;resizeLast=1;html=1;" vertex="1" parent="1">
          <mxGeometry x="610" y="291" width="260" height="149" as="geometry" />
        </mxCell>
        <mxCell id="nVaocaOWp-77uA6Ea02G-35" value="" style="shape=tableRow;horizontal=0;startSize=0;swimlaneHead=0;swimlaneBody=0;fillColor=none;collapsible=0;dropTarget=0;points=[[0,0.5],[1,0.5]];portConstraint=eastwest;top=0;left=0;right=0;bottom=1;" vertex="1" parent="nVaocaOWp-77uA6Ea02G-34">
          <mxGeometry y="30" width="260" height="30" as="geometry" />
        </mxCell>
        <mxCell id="nVaocaOWp-77uA6Ea02G-36" value="PK" style="shape=partialRectangle;connectable=0;fillColor=none;top=0;left=0;bottom=0;right=0;fontStyle=1;overflow=hidden;whiteSpace=wrap;html=1;" vertex="1" parent="nVaocaOWp-77uA6Ea02G-35">
          <mxGeometry width="30" height="30" as="geometry">
            <mxRectangle width="30" height="30" as="alternateBounds" />
          </mxGeometry>
        </mxCell>
        <mxCell id="nVaocaOWp-77uA6Ea02G-37" value="Financial data&amp;nbsp;ID Int&amp;nbsp;NOT NULL" style="shape=partialRectangle;connectable=0;fillColor=none;top=0;left=0;bottom=0;right=0;align=left;spacingLeft=6;fontStyle=5;overflow=hidden;whiteSpace=wrap;html=1;" vertex="1" parent="nVaocaOWp-77uA6Ea02G-35">
          <mxGeometry x="30" width="230" height="30" as="geometry">
            <mxRectangle width="230" height="30" as="alternateBounds" />
          </mxGeometry>
        </mxCell>
        <mxCell id="nVaocaOWp-77uA6Ea02G-38" value="" style="shape=tableRow;horizontal=0;startSize=0;swimlaneHead=0;swimlaneBody=0;fillColor=none;collapsible=0;dropTarget=0;points=[[0,0.5],[1,0.5]];portConstraint=eastwest;top=0;left=0;right=0;bottom=0;" vertex="1" parent="nVaocaOWp-77uA6Ea02G-34">
          <mxGeometry y="60" width="260" height="89" as="geometry" />
        </mxCell>
        <mxCell id="nVaocaOWp-77uA6Ea02G-39" value="" style="shape=partialRectangle;connectable=0;fillColor=none;top=0;left=0;bottom=0;right=0;editable=1;overflow=hidden;whiteSpace=wrap;html=1;" vertex="1" parent="nVaocaOWp-77uA6Ea02G-38">
          <mxGeometry width="30" height="89" as="geometry">
            <mxRectangle width="30" height="89" as="alternateBounds" />
          </mxGeometry>
        </mxCell>
        <mxCell id="nVaocaOWp-77uA6Ea02G-40" value="Revenue: Float&lt;br&gt;Expenses: Float&amp;nbsp;&lt;br&gt;Profit: Float&amp;nbsp;&lt;br&gt;Service statistics: Array&amp;nbsp;&lt;br&gt;Reports: Array" style="shape=partialRectangle;connectable=0;fillColor=none;top=0;left=0;bottom=0;right=0;align=left;spacingLeft=6;overflow=hidden;whiteSpace=wrap;html=1;" vertex="1" parent="nVaocaOWp-77uA6Ea02G-38">
          <mxGeometry x="30" width="230" height="89" as="geometry">
            <mxRectangle width="230" height="89" as="alternateBounds" />
          </mxGeometry>
        </mxCell>
        <mxCell id="nVaocaOWp-77uA6Ea02G-42" value="&lt;span style=&quot;text-align: left; text-wrap: wrap;&quot;&gt;Reminder Notifications&lt;/span&gt;" style="shape=table;startSize=30;container=1;collapsible=1;childLayout=tableLayout;fixedRows=1;rowLines=0;fontStyle=1;align=center;resizeLast=1;html=1;" vertex="1" parent="1">
          <mxGeometry x="1640" y="280.5" width="280" height="149" as="geometry" />
        </mxCell>
        <mxCell id="nVaocaOWp-77uA6Ea02G-43" value="" style="shape=tableRow;horizontal=0;startSize=0;swimlaneHead=0;swimlaneBody=0;fillColor=none;collapsible=0;dropTarget=0;points=[[0,0.5],[1,0.5]];portConstraint=eastwest;top=0;left=0;right=0;bottom=1;" vertex="1" parent="nVaocaOWp-77uA6Ea02G-42">
          <mxGeometry y="30" width="280" height="30" as="geometry" />
        </mxCell>
        <mxCell id="nVaocaOWp-77uA6Ea02G-44" value="PK" style="shape=partialRectangle;connectable=0;fillColor=none;top=0;left=0;bottom=0;right=0;fontStyle=1;overflow=hidden;whiteSpace=wrap;html=1;" vertex="1" parent="nVaocaOWp-77uA6Ea02G-43">
          <mxGeometry width="30" height="30" as="geometry">
            <mxRectangle width="30" height="30" as="alternateBounds" />
          </mxGeometry>
        </mxCell>
        <mxCell id="nVaocaOWp-77uA6Ea02G-45" value="Reminder Notifications&amp;nbsp;ID Int&amp;nbsp;NOT NULL" style="shape=partialRectangle;connectable=0;fillColor=none;top=0;left=0;bottom=0;right=0;align=left;spacingLeft=6;fontStyle=5;overflow=hidden;whiteSpace=wrap;html=1;" vertex="1" parent="nVaocaOWp-77uA6Ea02G-43">
          <mxGeometry x="30" width="250" height="30" as="geometry">
            <mxRectangle width="250" height="30" as="alternateBounds" />
          </mxGeometry>
        </mxCell>
        <mxCell id="nVaocaOWp-77uA6Ea02G-46" value="" style="shape=tableRow;horizontal=0;startSize=0;swimlaneHead=0;swimlaneBody=0;fillColor=none;collapsible=0;dropTarget=0;points=[[0,0.5],[1,0.5]];portConstraint=eastwest;top=0;left=0;right=0;bottom=0;" vertex="1" parent="nVaocaOWp-77uA6Ea02G-42">
          <mxGeometry y="60" width="280" height="89" as="geometry" />
        </mxCell>
        <mxCell id="nVaocaOWp-77uA6Ea02G-47" value="" style="shape=partialRectangle;connectable=0;fillColor=none;top=0;left=0;bottom=0;right=0;editable=1;overflow=hidden;whiteSpace=wrap;html=1;" vertex="1" parent="nVaocaOWp-77uA6Ea02G-46">
          <mxGeometry width="30" height="89" as="geometry">
            <mxRectangle width="30" height="89" as="alternateBounds" />
          </mxGeometry>
        </mxCell>
        <mxCell id="nVaocaOWp-77uA6Ea02G-48" value="Record Notifications: array&lt;br style=&quot;padding: 0px; margin: 0px;&quot;&gt;Action reminders: array&amp;nbsp;&lt;br style=&quot;padding: 0px; margin: 0px;&quot;&gt;Completion notifications: array&amp;nbsp;&lt;br style=&quot;padding: 0px; margin: 0px;&quot;&gt;Output reminders: array&amp;nbsp;" style="shape=partialRectangle;connectable=0;fillColor=none;top=0;left=0;bottom=0;right=0;align=left;spacingLeft=6;overflow=hidden;whiteSpace=wrap;html=1;" vertex="1" parent="nVaocaOWp-77uA6Ea02G-46">
          <mxGeometry x="30" width="250" height="89" as="geometry">
            <mxRectangle width="250" height="89" as="alternateBounds" />
          </mxGeometry>
        </mxCell>
        <mxCell id="nVaocaOWp-77uA6Ea02G-50" value="&lt;span style=&quot;text-align: left; text-wrap: wrap;&quot;&gt;Administrator&lt;/span&gt;" style="shape=table;startSize=30;container=1;collapsible=1;childLayout=tableLayout;fixedRows=1;rowLines=0;fontStyle=1;align=center;resizeLast=1;html=1;" vertex="1" parent="1">
          <mxGeometry x="920" y="359.5" width="260" height="191" as="geometry" />
        </mxCell>
        <mxCell id="nVaocaOWp-77uA6Ea02G-51" value="" style="shape=tableRow;horizontal=0;startSize=0;swimlaneHead=0;swimlaneBody=0;fillColor=none;collapsible=0;dropTarget=0;points=[[0,0.5],[1,0.5]];portConstraint=eastwest;top=0;left=0;right=0;bottom=1;" vertex="1" parent="nVaocaOWp-77uA6Ea02G-50">
          <mxGeometry y="30" width="260" height="30" as="geometry" />
        </mxCell>
        <mxCell id="nVaocaOWp-77uA6Ea02G-52" value="PK" style="shape=partialRectangle;connectable=0;fillColor=none;top=0;left=0;bottom=0;right=0;fontStyle=1;overflow=hidden;whiteSpace=wrap;html=1;" vertex="1" parent="nVaocaOWp-77uA6Ea02G-51">
          <mxGeometry width="30" height="30" as="geometry">
            <mxRectangle width="30" height="30" as="alternateBounds" />
          </mxGeometry>
        </mxCell>
        <mxCell id="nVaocaOWp-77uA6Ea02G-53" value="Administrator ID Int&amp;nbsp;NOT NULL" style="shape=partialRectangle;connectable=0;fillColor=none;top=0;left=0;bottom=0;right=0;align=left;spacingLeft=6;fontStyle=5;overflow=hidden;whiteSpace=wrap;html=1;" vertex="1" parent="nVaocaOWp-77uA6Ea02G-51">
          <mxGeometry x="30" width="230" height="30" as="geometry">
            <mxRectangle width="230" height="30" as="alternateBounds" />
          </mxGeometry>
        </mxCell>
        <mxCell id="nVaocaOWp-77uA6Ea02G-54" value="" style="shape=tableRow;horizontal=0;startSize=0;swimlaneHead=0;swimlaneBody=0;fillColor=none;collapsible=0;dropTarget=0;points=[[0,0.5],[1,0.5]];portConstraint=eastwest;top=0;left=0;right=0;bottom=0;" vertex="1" parent="nVaocaOWp-77uA6Ea02G-50">
          <mxGeometry y="60" width="260" height="131" as="geometry" />
        </mxCell>
        <mxCell id="nVaocaOWp-77uA6Ea02G-55" value="" style="shape=partialRectangle;connectable=0;fillColor=none;top=0;left=0;bottom=0;right=0;editable=1;overflow=hidden;whiteSpace=wrap;html=1;" vertex="1" parent="nVaocaOWp-77uA6Ea02G-54">
          <mxGeometry width="30" height="131" as="geometry">
            <mxRectangle width="30" height="131" as="alternateBounds" />
          </mxGeometry>
        </mxCell>
        <mxCell id="nVaocaOWp-77uA6Ea02G-56" value="First name: string&amp;nbsp;&lt;br style=&quot;padding: 0px; margin: 0px;&quot;&gt;Last name: string&amp;nbsp;&lt;br style=&quot;padding: 0px; margin: 0px;&quot;&gt;Specialization: string&amp;nbsp;&lt;br style=&quot;padding: 0px; margin: 0px;&quot;&gt;Work schedule: string&amp;nbsp;&lt;br style=&quot;padding: 0px; margin: 0px;&quot;&gt;Internships: int&amp;nbsp;&lt;br style=&quot;padding: 0px; margin: 0px;&quot;&gt;&lt;span style=&quot;font-weight: 700;&quot;&gt;Review ID Int&amp;nbsp;NOT NULL&lt;/span&gt;&lt;br style=&quot;padding: 0px; margin: 0px;&quot;&gt;Contact information: string&amp;nbsp;&lt;div&gt;&lt;span style=&quot;font-weight: 700;&quot;&gt;Financial data&amp;nbsp;ID Int&amp;nbsp;NOT NULL&lt;/span&gt;&lt;br&gt;&lt;/div&gt;" style="shape=partialRectangle;connectable=0;fillColor=none;top=0;left=0;bottom=0;right=0;align=left;spacingLeft=6;overflow=hidden;whiteSpace=wrap;html=1;" vertex="1" parent="nVaocaOWp-77uA6Ea02G-54">
          <mxGeometry x="30" width="230" height="131" as="geometry">
            <mxRectangle width="230" height="131" as="alternateBounds" />
          </mxGeometry>
        </mxCell>
        <mxCell id="nVaocaOWp-77uA6Ea02G-57" value="" style="edgeStyle=entityRelationEdgeStyle;fontSize=12;html=1;endArrow=ERoneToMany;rounded=0;exitX=1;exitY=0.5;exitDx=0;exitDy=0;" edge="1" parent="1" source="nVaocaOWp-77uA6Ea02G-19">
          <mxGeometry width="100" height="100" relative="1" as="geometry">
            <mxPoint x="480" y="750" as="sourcePoint" />
            <mxPoint x="550" y="692" as="targetPoint" />
          </mxGeometry>
        </mxCell>
        <mxCell id="nVaocaOWp-77uA6Ea02G-58" value="" style="edgeStyle=orthogonalEdgeStyle;fontSize=12;html=1;endArrow=ERoneToMany;rounded=0;exitX=0;exitY=0.5;exitDx=0;exitDy=0;" edge="1" parent="1" source="nVaocaOWp-77uA6Ea02G-11" target="ZavuWOCTDrpFLeWUKXMv-28">
          <mxGeometry width="100" height="100" relative="1" as="geometry">
            <mxPoint x="910" y="610" as="sourcePoint" />
            <mxPoint x="520" y="720" as="targetPoint" />
            <Array as="points">
              <mxPoint x="910" y="605" />
              <mxPoint x="910" y="770" />
              <mxPoint x="521" y="770" />
              <mxPoint x="521" y="720" />
            </Array>
          </mxGeometry>
        </mxCell>
        <mxCell id="nVaocaOWp-77uA6Ea02G-59" value="&lt;b style=&quot;color: rgb(0, 0, 0); font-family: Helvetica; font-size: 12px; font-style: normal; font-variant-ligatures: normal; font-variant-caps: normal; letter-spacing: normal; orphans: 2; text-indent: 0px; text-transform: none; widows: 2; word-spacing: 0px; -webkit-text-stroke-width: 0px; white-space: normal; background-color: rgb(251, 251, 251); text-decoration-thickness: initial; text-decoration-style: initial; text-decoration-color: initial;&quot;&gt;FK&lt;/b&gt;" style="text;whiteSpace=wrap;html=1;align=center;" vertex="1" parent="1">
          <mxGeometry x="550" y="709" width="30" height="20" as="geometry" />
        </mxCell>
        <mxCell id="nVaocaOWp-77uA6Ea02G-60" value="" style="edgeStyle=entityRelationEdgeStyle;fontSize=12;html=1;endArrow=ERoneToMany;rounded=0;exitX=1;exitY=0.5;exitDx=0;exitDy=0;entryX=-0.009;entryY=0.597;entryDx=0;entryDy=0;entryPerimeter=0;" edge="1" parent="1" source="nVaocaOWp-77uA6Ea02G-11" target="ZavuWOCTDrpFLeWUKXMv-40">
          <mxGeometry width="100" height="100" relative="1" as="geometry">
            <mxPoint x="1210" y="870" as="sourcePoint" />
            <mxPoint x="1290" y="967" as="targetPoint" />
            <Array as="points">
              <mxPoint x="1230" y="901" />
              <mxPoint x="1240" y="770" />
              <mxPoint x="1210" y="770" />
              <mxPoint x="1230" y="870" />
              <mxPoint x="1230" y="890" />
            </Array>
          </mxGeometry>
        </mxCell>
        <mxCell id="nVaocaOWp-77uA6Ea02G-61" value="&lt;b style=&quot;color: rgb(0, 0, 0); font-family: Helvetica; font-size: 12px; font-style: normal; font-variant-ligatures: normal; font-variant-caps: normal; letter-spacing: normal; orphans: 2; text-indent: 0px; text-transform: none; widows: 2; word-spacing: 0px; -webkit-text-stroke-width: 0px; white-space: normal; background-color: rgb(251, 251, 251); text-decoration-thickness: initial; text-decoration-style: initial; text-decoration-color: initial;&quot;&gt;FK&lt;/b&gt;" style="text;whiteSpace=wrap;html=1;align=center;" vertex="1" parent="1">
          <mxGeometry x="1270" y="920" width="30" height="20" as="geometry" />
        </mxCell>
        <mxCell id="nVaocaOWp-77uA6Ea02G-62" value="" style="edgeStyle=entityRelationEdgeStyle;fontSize=12;html=1;endArrow=ERoneToMany;rounded=0;exitX=1;exitY=0.5;exitDx=0;exitDy=0;entryX=-0.007;entryY=0.431;entryDx=0;entryDy=0;entryPerimeter=0;" edge="1" parent="1" source="nVaocaOWp-77uA6Ea02G-3" target="ZavuWOCTDrpFLeWUKXMv-40">
          <mxGeometry width="100" height="100" relative="1" as="geometry">
            <mxPoint x="1210" y="890" as="sourcePoint" />
            <mxPoint x="1270" y="955" as="targetPoint" />
            <Array as="points">
              <mxPoint x="1230" y="921" />
              <mxPoint x="1230" y="890" />
              <mxPoint x="1230" y="910" />
            </Array>
          </mxGeometry>
        </mxCell>
        <mxCell id="nVaocaOWp-77uA6Ea02G-66" value="&lt;b style=&quot;color: rgb(0, 0, 0); font-family: Helvetica; font-size: 12px; font-style: normal; font-variant-ligatures: normal; font-variant-caps: normal; letter-spacing: normal; orphans: 2; text-indent: 0px; text-transform: none; widows: 2; word-spacing: 0px; -webkit-text-stroke-width: 0px; white-space: normal; background-color: rgb(251, 251, 251); text-decoration-thickness: initial; text-decoration-style: initial; text-decoration-color: initial;&quot;&gt;FK&lt;/b&gt;" style="text;whiteSpace=wrap;html=1;align=center;" vertex="1" parent="1">
          <mxGeometry x="1270" y="960" width="30" height="20" as="geometry" />
        </mxCell>
        <mxCell id="nVaocaOWp-77uA6Ea02G-69" value="&lt;b style=&quot;color: rgb(0, 0, 0); font-family: Helvetica; font-size: 12px; font-style: normal; font-variant-ligatures: normal; font-variant-caps: normal; letter-spacing: normal; orphans: 2; text-indent: 0px; text-transform: none; widows: 2; word-spacing: 0px; -webkit-text-stroke-width: 0px; white-space: normal; background-color: rgb(251, 251, 251); text-decoration-thickness: initial; text-decoration-style: initial; text-decoration-color: initial;&quot;&gt;FK&lt;/b&gt;" style="text;whiteSpace=wrap;html=1;align=center;" vertex="1" parent="1">
          <mxGeometry x="1270" y="950" width="30" height="20" as="geometry" />
        </mxCell>
        <mxCell id="nVaocaOWp-77uA6Ea02G-70" value="" style="edgeStyle=orthogonalEdgeStyle;fontSize=12;html=1;endArrow=ERoneToMany;rounded=0;exitX=0;exitY=0.5;exitDx=0;exitDy=0;entryX=0;entryY=0.75;entryDx=0;entryDy=0;" edge="1" parent="1" source="ZavuWOCTDrpFLeWUKXMv-11" target="nVaocaOWp-77uA6Ea02G-66">
          <mxGeometry width="100" height="100" relative="1" as="geometry">
            <mxPoint x="1250" y="530" as="sourcePoint" />
            <mxPoint x="1260" y="980" as="targetPoint" />
          </mxGeometry>
        </mxCell>
        <mxCell id="nVaocaOWp-77uA6Ea02G-71" value="&lt;b style=&quot;color: rgb(0, 0, 0); font-family: Helvetica; font-size: 12px; font-style: normal; font-variant-ligatures: normal; font-variant-caps: normal; letter-spacing: normal; orphans: 2; text-indent: 0px; text-transform: none; widows: 2; word-spacing: 0px; -webkit-text-stroke-width: 0px; white-space: normal; background-color: rgb(251, 251, 251); text-decoration-thickness: initial; text-decoration-style: initial; text-decoration-color: initial;&quot;&gt;FK&lt;/b&gt;" style="text;whiteSpace=wrap;html=1;align=center;" vertex="1" parent="1">
          <mxGeometry x="920" y="490" width="30" height="20" as="geometry" />
        </mxCell>
        <mxCell id="nVaocaOWp-77uA6Ea02G-72" value="" style="edgeStyle=orthogonalEdgeStyle;fontSize=12;html=1;endArrow=ERoneToMany;rounded=0;exitX=-0.001;exitY=0.257;exitDx=0;exitDy=0;entryX=0;entryY=0.75;entryDx=0;entryDy=0;exitPerimeter=0;" edge="1" parent="1" source="nVaocaOWp-77uA6Ea02G-11" target="nVaocaOWp-77uA6Ea02G-71">
          <mxGeometry width="100" height="100" relative="1" as="geometry">
            <mxPoint x="940" y="600" as="sourcePoint" />
            <mxPoint x="910" y="500" as="targetPoint" />
          </mxGeometry>
        </mxCell>
        <mxCell id="nVaocaOWp-77uA6Ea02G-74" value="&lt;b style=&quot;color: rgb(0, 0, 0); font-family: Helvetica; font-size: 12px; font-style: normal; font-variant-ligatures: normal; font-variant-caps: normal; letter-spacing: normal; orphans: 2; text-indent: 0px; text-transform: none; widows: 2; word-spacing: 0px; -webkit-text-stroke-width: 0px; white-space: normal; background-color: rgb(251, 251, 251); text-decoration-thickness: initial; text-decoration-style: initial; text-decoration-color: initial;&quot;&gt;FK&lt;/b&gt;" style="text;whiteSpace=wrap;html=1;align=center;" vertex="1" parent="1">
          <mxGeometry x="1310" y="729" width="30" height="20" as="geometry" />
        </mxCell>
        <mxCell id="nVaocaOWp-77uA6Ea02G-75" value="" style="edgeStyle=orthogonalEdgeStyle;fontSize=12;html=1;endArrow=ERoneToMany;rounded=0;exitX=0;exitY=0.5;exitDx=0;exitDy=0;entryX=0;entryY=0.75;entryDx=0;entryDy=0;" edge="1" parent="1" source="nVaocaOWp-77uA6Ea02G-27" target="nVaocaOWp-77uA6Ea02G-74">
          <mxGeometry width="100" height="100" relative="1" as="geometry">
            <mxPoint x="1620" y="570" as="sourcePoint" />
            <mxPoint x="1300" y="730" as="targetPoint" />
            <Array as="points">
              <mxPoint x="1610" y="575" />
              <mxPoint x="1610" y="771" />
              <mxPoint x="1300" y="771" />
              <mxPoint x="1300" y="744" />
            </Array>
          </mxGeometry>
        </mxCell>
        <mxCell id="nVaocaOWp-77uA6Ea02G-76" value="&lt;b style=&quot;color: rgb(0, 0, 0); font-family: Helvetica; font-size: 12px; font-style: normal; font-variant-ligatures: normal; font-variant-caps: normal; letter-spacing: normal; orphans: 2; text-indent: 0px; text-transform: none; widows: 2; word-spacing: 0px; -webkit-text-stroke-width: 0px; white-space: normal; background-color: rgb(251, 251, 251); text-decoration-thickness: initial; text-decoration-style: initial; text-decoration-color: initial;&quot;&gt;FK&lt;/b&gt;" style="text;whiteSpace=wrap;html=1;align=center;" vertex="1" parent="1">
          <mxGeometry x="920" y="520" width="30" height="20" as="geometry" />
        </mxCell>
        <mxCell id="nVaocaOWp-77uA6Ea02G-77" value="" style="edgeStyle=orthogonalEdgeStyle;fontSize=12;html=1;endArrow=ERoneToMany;rounded=0;entryX=0;entryY=0.75;entryDx=0;entryDy=0;exitX=1;exitY=0.5;exitDx=0;exitDy=0;" edge="1" parent="1" source="nVaocaOWp-77uA6Ea02G-35" target="nVaocaOWp-77uA6Ea02G-76">
          <mxGeometry width="100" height="100" relative="1" as="geometry">
            <mxPoint x="850" y="500" as="sourcePoint" />
            <mxPoint x="930" y="515" as="targetPoint" />
            <Array as="points">
              <mxPoint x="900" y="336" />
              <mxPoint x="900" y="535" />
            </Array>
          </mxGeometry>
        </mxCell>
        <mxCell id="nVaocaOWp-77uA6Ea02G-78" value="&lt;b style=&quot;color: rgb(0, 0, 0); font-family: Helvetica; font-size: 12px; font-style: normal; font-variant-ligatures: normal; font-variant-caps: normal; letter-spacing: normal; orphans: 2; text-indent: 0px; text-transform: none; widows: 2; word-spacing: 0px; -webkit-text-stroke-width: 0px; white-space: normal; background-color: rgb(251, 251, 251); text-decoration-thickness: initial; text-decoration-style: initial; text-decoration-color: initial;&quot;&gt;FK&lt;/b&gt;" style="text;whiteSpace=wrap;html=1;align=center;" vertex="1" parent="1">
          <mxGeometry x="1310" y="709" width="30" height="20" as="geometry" />
        </mxCell>
        <mxCell id="nVaocaOWp-77uA6Ea02G-79" value="" style="edgeStyle=orthogonalEdgeStyle;fontSize=12;html=1;endArrow=ERoneToMany;rounded=0;entryX=0;entryY=0.75;entryDx=0;entryDy=0;exitX=1;exitY=0.128;exitDx=0;exitDy=0;exitPerimeter=0;" edge="1" parent="1" source="nVaocaOWp-77uA6Ea02G-34">
          <mxGeometry width="100" height="100" relative="1" as="geometry">
            <mxPoint x="1260" y="524.99" as="sourcePoint" />
            <mxPoint x="1310" y="723.99" as="targetPoint" />
            <Array as="points">
              <mxPoint x="1290" y="310" />
              <mxPoint x="1290" y="724" />
            </Array>
          </mxGeometry>
        </mxCell>
        <mxCell id="nVaocaOWp-77uA6Ea02G-80" value="&lt;b style=&quot;color: rgb(0, 0, 0); font-family: Helvetica; font-size: 12px; font-style: normal; font-variant-ligatures: normal; font-variant-caps: normal; letter-spacing: normal; orphans: 2; text-indent: 0px; text-transform: none; widows: 2; word-spacing: 0px; -webkit-text-stroke-width: 0px; white-space: normal; background-color: rgb(251, 251, 251); text-decoration-thickness: initial; text-decoration-style: initial; text-decoration-color: initial;&quot;&gt;FK&lt;/b&gt;" style="text;whiteSpace=wrap;html=1;align=center;" vertex="1" parent="1">
          <mxGeometry x="1310" y="440" width="30" height="20" as="geometry" />
        </mxCell>
        <mxCell id="nVaocaOWp-77uA6Ea02G-81" value="&lt;b style=&quot;color: rgb(0, 0, 0); font-family: Helvetica; font-size: 12px; font-style: normal; font-variant-ligatures: normal; font-variant-caps: normal; letter-spacing: normal; orphans: 2; text-indent: 0px; text-transform: none; widows: 2; word-spacing: 0px; -webkit-text-stroke-width: 0px; white-space: normal; background-color: rgb(251, 251, 251); text-decoration-thickness: initial; text-decoration-style: initial; text-decoration-color: initial;&quot;&gt;FK&lt;/b&gt;" style="text;whiteSpace=wrap;html=1;align=center;" vertex="1" parent="1">
          <mxGeometry x="1310" y="320" width="30" height="20" as="geometry" />
        </mxCell>
        <mxCell id="nVaocaOWp-77uA6Ea02G-82" value="&lt;b style=&quot;color: rgb(0, 0, 0); font-family: Helvetica; font-size: 12px; font-style: normal; font-variant-ligatures: normal; font-variant-caps: normal; letter-spacing: normal; orphans: 2; text-indent: 0px; text-transform: none; widows: 2; word-spacing: 0px; -webkit-text-stroke-width: 0px; white-space: normal; background-color: rgb(251, 251, 251); text-decoration-thickness: initial; text-decoration-style: initial; text-decoration-color: initial;&quot;&gt;FK&lt;/b&gt;" style="text;whiteSpace=wrap;html=1;align=center;" vertex="1" parent="1">
          <mxGeometry x="1310" y="339.5" width="30" height="20" as="geometry" />
        </mxCell>
        <mxCell id="nVaocaOWp-77uA6Ea02G-83" value="&lt;b style=&quot;color: rgb(0, 0, 0); font-family: Helvetica; font-size: 12px; font-style: normal; font-variant-ligatures: normal; font-variant-caps: normal; letter-spacing: normal; orphans: 2; text-indent: 0px; text-transform: none; widows: 2; word-spacing: 0px; -webkit-text-stroke-width: 0px; white-space: normal; background-color: rgb(251, 251, 251); text-decoration-thickness: initial; text-decoration-style: initial; text-decoration-color: initial;&quot;&gt;FK&lt;/b&gt;" style="text;whiteSpace=wrap;html=1;align=center;" vertex="1" parent="1">
          <mxGeometry x="1310" y="350" width="30" height="20" as="geometry" />
        </mxCell>
        <mxCell id="nVaocaOWp-77uA6Ea02G-87" value="" style="edgeStyle=orthogonalEdgeStyle;fontSize=12;html=1;endArrow=ERoneToMany;rounded=0;exitX=0;exitY=0.5;exitDx=0;exitDy=0;entryX=0;entryY=0.75;entryDx=0;entryDy=0;" edge="1" parent="1" source="nVaocaOWp-77uA6Ea02G-43">
          <mxGeometry width="100" height="100" relative="1" as="geometry">
            <mxPoint x="1630" y="280.5" as="sourcePoint" />
            <mxPoint x="1310" y="449.5" as="targetPoint" />
            <Array as="points">
              <mxPoint x="1610" y="325" />
              <mxPoint x="1610" y="477" />
              <mxPoint x="1300" y="477" />
              <mxPoint x="1300" y="449" />
            </Array>
          </mxGeometry>
        </mxCell>
        <mxCell id="nVaocaOWp-77uA6Ea02G-88" value="" style="edgeStyle=orthogonalEdgeStyle;fontSize=12;html=1;endArrow=ERoneToMany;rounded=0;entryX=-0.006;entryY=0.367;entryDx=0;entryDy=0;entryPerimeter=0;exitX=-0.001;exitY=0.3;exitDx=0;exitDy=0;exitPerimeter=0;" edge="1" parent="1" source="ZavuWOCTDrpFLeWUKXMv-37" target="ZavuWOCTDrpFLeWUKXMv-48">
          <mxGeometry width="100" height="100" relative="1" as="geometry">
            <mxPoint x="1250" y="840" as="sourcePoint" />
            <mxPoint x="1230" y="1250" as="targetPoint" />
            <Array as="points">
              <mxPoint x="1250" y="839" />
              <mxPoint x="1250" y="362" />
            </Array>
          </mxGeometry>
        </mxCell>
        <mxCell id="nVaocaOWp-77uA6Ea02G-89" value="" style="edgeStyle=orthogonalEdgeStyle;fontSize=12;html=1;endArrow=ERoneToMany;rounded=0;entryX=-0.006;entryY=0.367;entryDx=0;entryDy=0;entryPerimeter=0;exitX=-0.008;exitY=0.254;exitDx=0;exitDy=0;exitPerimeter=0;" edge="1" parent="1" source="ZavuWOCTDrpFLeWUKXMv-11">
          <mxGeometry width="100" height="100" relative="1" as="geometry">
            <mxPoint x="1272" y="827" as="sourcePoint" />
            <mxPoint x="1310" y="350" as="targetPoint" />
            <Array as="points">
              <mxPoint x="1272" y="558" />
              <mxPoint x="1272" y="350" />
            </Array>
          </mxGeometry>
        </mxCell>
        <mxCell id="nVaocaOWp-77uA6Ea02G-90" value="" style="edgeStyle=orthogonalEdgeStyle;fontSize=12;html=1;endArrow=ERoneToMany;rounded=0;entryX=0;entryY=0.75;entryDx=0;entryDy=0;exitX=1;exitY=0.5;exitDx=0;exitDy=0;" edge="1" parent="1" source="ZavuWOCTDrpFLeWUKXMv-25">
          <mxGeometry width="100" height="100" relative="1" as="geometry">
            <mxPoint x="870" y="-80" as="sourcePoint" />
            <mxPoint x="1310" y="333.99" as="targetPoint" />
            <Array as="points">
              <mxPoint x="890" y="575" />
              <mxPoint x="890" y="270" />
              <mxPoint x="1300" y="270" />
              <mxPoint x="1300" y="334" />
            </Array>
          </mxGeometry>
        </mxCell>
      </root>
    </mxGraphModel>
  </diagram>
</mxfile>
